Clint Eastwood Collection - Pale Rider (1985)  


Verenigde Staten
Western / Actie
115 minuten

geregisseerd door Clint Eastwood
met Clint Eastwood, Michael Moriarty en Chris Penn

Een mijndorpje in Californië wordt aangevallen door de brutale bende van de tirranieke LaHood. Huizen en winkels worden vernietigd en de mensen worden geterroriseerd en bedreigd. De 14-jarige Megan ziet het allemaal gebeuren en kan niet verhinderen dat haar hond gedood wordt. Bij het graf van haar lievelingsdier smeekt ze om een mirakel. En plots daagt als uit het niets een man op die zichzelf de priester noemt...
      
English

Clint Eastwood is a mysterious preacher who comes to a gold mining camp near a small town in the mountains. The miners are in grave danger as a ruthless landowner decides to take their land, with the support of the sheriff. The only one who seems brave enough to save them is this preacher who came from nowhere and nobody knows his past or his real name. Why is the sheriff afraid of him? Why is he such a good shooter? Is he really a preacher?

Categorie : Beeld 
Formaat : DVD5 
Bron : Retail
Audio : English, 5.1 French 3.1 Italian, 3.1
Subs : English, French, Italian, Dutch, Arabic, Spanish,Portuguese, German
Menu : Yes 
Genre : Western
Cover : Yes

Video
ID                               : 224 (0xE0)
Format                           : MPEG Video
Format version                   : Version 2
Format profile                   : Main@Main
Format settings, Matrix          : Default
Duration                         : 28mn 56s
Bit rate mode                    : Variable
Bit rate                         : 3 982 Kbps
Nominal bit rate                 : 7 500 Kbps
Width                            : 720 pixels
Height                           : 576 pixels
Display aspect ratio             : 16/9
Frame rate                       : 25.000 fps
Standard                         : PAL
Colorimetry                      : 4:2:0
Scan type                        : Interlaced
Scan order                       : Top Field First
Bits/(Pixel*Frame)               : 0.384
Stream size                      : 824 MiB (80%)

Audio #1
ID                               : 128 (0x80)
Format                           : AC-3
Format/Info                      : Audio Coding 3
Duration                         : 28mn 56s
Bit rate mode                    : Constant
Bit rate                         : 384 Kbps
Channel(s)                       : 6 channels
Channel positions                : Front: L C R, Surround: L R, LFE
Sampling rate                    : 48.0 KHz
Video delay                      : -728ms
Stream size                      : 79.5 MiB (8%)


Weblink :  http://www.moviemeter.nl/film/2244 
Weblink :  http://www.imdb.com/title/tt0089767

*****************************************

Brought to you by 
Pioen

2Lions Team

meer zien??
Kom dan eens kijken op ons forum 




2Lions the site to be for all your Dutch MOVIES and more

******************************************


DON T HIT AND RUN Niet gelijk afhaken als de FILM binnen is blijf seeden. 

Don`t quit after you finished the download, but keep seeding


There are fake torrents from uploaders who use our team name.
Those are not ours, or members from our team.
We 2Lions-Team are not responsible for the fake posts on our name

Wij 2Lions-Team zijn niet verantwoordelijk voor die zieke FAKE posten die op onze naam worden gedaan
 


 
 
 
